<svg xmlns="http://www.w3.org/2000/svg" xmlns:xlink="http://www.w3.org/1999/xlink" width="500" zoomAndPan="magnify" viewBox="0 0 375 374.999991" height="500" preserveAspectRatio="xMidYMid meet" version="1.0"><defs><g/><clipPath id="842870b827"><path d="M 136 95 L 375 95 L 375 335 L 136 335 Z M 136 95 " clip-rule="nonzero"/></clipPath><clipPath id="40e0513494"><path d="M 315.316406 95.839844 L 375 155.523438 L 195.953125 334.566406 L 136.273438 274.886719 Z M 315.316406 95.839844 " clip-rule="nonzero"/></clipPath><clipPath id="cec37e01c8"><path d="M 315.316406 95.839844 L 375 155.523438 L 195.953125 334.566406 L 136.273438 274.886719 Z M 315.316406 95.839844 " clip-rule="nonzero"/></clipPath><linearGradient x1="-384.000028" gradientTransform="matrix(0.233131, 0.233131, -0.233131, 0.233131, 315.317837, 95.841708)" y1="384" x2="639.999931" gradientUnits="userSpaceOnUse" y2="384" id="d42a18c4db"><stop stop-opacity="1" stop-color="rgb(100%, 87.098694%, 34.899902%)" offset="0"/><stop stop-opacity="1" stop-color="rgb(100%, 87.098694%, 34.899902%)" offset="0.25"/><stop stop-opacity="1" stop-color="rgb(100%, 87.098694%, 34.899902%)" offset="0.375"/><stop stop-opacity="1" stop-color="rgb(100%, 86.627197%, 34.825134%)" offset="0.378906"/><stop stop-opacity="1" stop-color="rgb(100%, 86.155701%, 34.751892%)" offset="0.382812"/><stop stop-opacity="1" stop-color="rgb(100%, 85.682678%, 34.67865%)" offset="0.386719"/><stop stop-opacity="1" stop-color="rgb(100%, 85.211182%, 34.605408%)" offset="0.390625"/><stop stop-opacity="1" stop-color="rgb(100%, 84.739685%, 34.532166%)" offset="0.394531"/><stop stop-opacity="1" stop-color="rgb(100%, 84.268188%, 34.458923%)" offset="0.398438"/><stop stop-opacity="1" stop-color="rgb(100%, 83.795166%, 34.385681%)" offset="0.402344"/><stop stop-opacity="1" stop-color="rgb(100%, 83.323669%, 34.312439%)" offset="0.40625"/><stop stop-opacity="1" stop-color="rgb(100%, 82.852173%, 34.237671%)" offset="0.410156"/><stop stop-opacity="1" stop-color="rgb(100%, 82.380676%, 34.164429%)" offset="0.414062"/><stop stop-opacity="1" stop-color="rgb(100%, 81.907654%, 34.091187%)" offset="0.417969"/><stop stop-opacity="1" stop-color="rgb(100%, 81.436157%, 34.017944%)" offset="0.421875"/><stop stop-opacity="1" stop-color="rgb(100%, 80.964661%, 33.944702%)" offset="0.425781"/><stop stop-opacity="1" stop-color="rgb(100%, 80.493164%, 33.87146%)" offset="0.429688"/><stop stop-opacity="1" stop-color="rgb(100%, 80.020142%, 33.798218%)" offset="0.433594"/><stop stop-opacity="1" stop-color="rgb(100%, 79.548645%, 33.724976%)" offset="0.4375"/><stop stop-opacity="1" stop-color="rgb(100%, 79.077148%, 33.650208%)" offset="0.441406"/><stop stop-opacity="1" stop-color="rgb(100%, 78.605652%, 33.576965%)" offset="0.445312"/><stop stop-opacity="1" stop-color="rgb(100%, 78.132629%, 33.503723%)" offset="0.449219"/><stop stop-opacity="1" stop-color="rgb(100%, 77.661133%, 33.430481%)" offset="0.453125"/><stop stop-opacity="1" stop-color="rgb(100%, 77.189636%, 33.357239%)" offset="0.457031"/><stop stop-opacity="1" stop-color="rgb(100%, 76.71814%, 33.283997%)" offset="0.460938"/><stop stop-opacity="1" stop-color="rgb(100%, 76.245117%, 33.209229%)" offset="0.464844"/><stop stop-opacity="1" stop-color="rgb(100%, 75.773621%, 33.135986%)" offset="0.46875"/><stop stop-opacity="1" stop-color="rgb(100%, 75.302124%, 33.062744%)" offset="0.472656"/><stop stop-opacity="1" stop-color="rgb(100%, 74.830627%, 32.989502%)" offset="0.476562"/><stop stop-opacity="1" stop-color="rgb(100%, 74.357605%, 32.91626%)" offset="0.480469"/><stop stop-opacity="1" stop-color="rgb(100%, 73.886108%, 32.843018%)" offset="0.484375"/><stop stop-opacity="1" stop-color="rgb(100%, 73.414612%, 32.769775%)" offset="0.488281"/><stop stop-opacity="1" stop-color="rgb(100%, 72.943115%, 32.696533%)" offset="0.492187"/><stop stop-opacity="1" stop-color="rgb(100%, 72.470093%, 32.621765%)" offset="0.496094"/><stop stop-opacity="1" stop-color="rgb(100%, 71.998596%, 32.548523%)" offset="0.5"/><stop stop-opacity="1" stop-color="rgb(100%, 71.5271%, 32.475281%)" offset="0.503906"/><stop stop-opacity="1" stop-color="rgb(100%, 71.055603%, 32.402039%)" offset="0.507812"/><stop stop-opacity="1" stop-color="rgb(100%, 70.582581%, 32.328796%)" offset="0.511719"/><stop stop-opacity="1" stop-color="rgb(100%, 70.111084%, 32.255554%)" offset="0.515625"/><stop stop-opacity="1" stop-color="rgb(100%, 69.639587%, 32.182312%)" offset="0.519531"/><stop stop-opacity="1" stop-color="rgb(100%, 69.168091%, 32.10907%)" offset="0.523438"/><stop stop-opacity="1" stop-color="rgb(100%, 68.695068%, 32.034302%)" offset="0.527344"/><stop stop-opacity="1" stop-color="rgb(100%, 68.223572%, 31.96106%)" offset="0.53125"/><stop stop-opacity="1" stop-color="rgb(100%, 67.752075%, 31.887817%)" offset="0.535156"/><stop stop-opacity="1" stop-color="rgb(100%, 67.280579%, 31.814575%)" offset="0.539062"/><stop stop-opacity="1" stop-color="rgb(100%, 66.807556%, 31.741333%)" offset="0.542969"/><stop stop-opacity="1" stop-color="rgb(100%, 66.33606%, 31.668091%)" offset="0.546875"/><stop stop-opacity="1" stop-color="rgb(100%, 65.864563%, 31.594849%)" offset="0.550781"/><stop stop-opacity="1" stop-color="rgb(100%, 65.393066%, 31.521606%)" offset="0.554688"/><stop stop-opacity="1" stop-color="rgb(100%, 64.920044%, 31.446838%)" offset="0.558594"/><stop stop-opacity="1" stop-color="rgb(100%, 64.448547%, 31.373596%)" offset="0.5625"/><stop stop-opacity="1" stop-color="rgb(100%, 63.977051%, 31.300354%)" offset="0.566406"/><stop stop-opacity="1" stop-color="rgb(100%, 63.505554%, 31.227112%)" offset="0.570312"/><stop stop-opacity="1" stop-color="rgb(100%, 63.032532%, 31.15387%)" offset="0.574219"/><stop stop-opacity="1" stop-color="rgb(100%, 62.561035%, 31.080627%)" offset="0.578125"/><stop stop-opacity="1" stop-color="rgb(100%, 62.089539%, 31.007385%)" offset="0.582031"/><stop stop-opacity="1" stop-color="rgb(100%, 61.618042%, 30.934143%)" offset="0.585938"/><stop stop-opacity="1" stop-color="rgb(100%, 61.14502%, 30.859375%)" offset="0.589844"/><stop stop-opacity="1" stop-color="rgb(100%, 60.673523%, 30.786133%)" offset="0.59375"/><stop stop-opacity="1" stop-color="rgb(100%, 60.202026%, 30.712891%)" offset="0.597656"/><stop stop-opacity="1" stop-color="rgb(100%, 59.73053%, 30.639648%)" offset="0.601562"/><stop stop-opacity="1" stop-color="rgb(100%, 59.257507%, 30.566406%)" offset="0.605469"/><stop stop-opacity="1" stop-color="rgb(100%, 58.786011%, 30.493164%)" offset="0.609375"/><stop stop-opacity="1" stop-color="rgb(100%, 58.314514%, 30.419922%)" offset="0.613281"/><stop stop-opacity="1" stop-color="rgb(100%, 57.843018%, 30.34668%)" offset="0.617187"/><stop stop-opacity="1" stop-color="rgb(100%, 57.369995%, 30.271912%)" offset="0.621094"/><stop stop-opacity="1" stop-color="rgb(100%, 56.898499%, 30.198669%)" offset="0.625"/><stop stop-opacity="1" stop-color="rgb(100%, 56.898499%, 30.198669%)" offset="0.75"/><stop stop-opacity="1" stop-color="rgb(100%, 56.898499%, 30.198669%)" offset="1"/></linearGradient><clipPath id="a6de8f1d91"><path d="M 0 79 L 182 79 L 182 261 L 0 261 Z M 0 79 " clip-rule="nonzero"/></clipPath><clipPath id="167d181169"><path d="M 0.00390625 138.746094 L 59.683594 79.066406 L 181.175781 200.558594 L 121.496094 260.242188 Z M 0.00390625 138.746094 " clip-rule="nonzero"/></clipPath><clipPath id="3bd5f281db"><path d="M 73.914062 38.183594 L 142.742188 38.183594 L 142.742188 107.015625 L 73.914062 107.015625 Z M 73.914062 38.183594 " clip-rule="nonzero"/></clipPath><clipPath id="31f8241bdc"><path d="M 108.328125 38.183594 L 142.742188 72.597656 L 108.328125 107.015625 L 73.914062 72.597656 Z M 108.328125 38.183594 " clip-rule="nonzero"/></clipPath><clipPath id="e2c0a58413"><path d="M 243.070312 41.652344 L 311.902344 41.652344 L 311.902344 110.484375 L 243.070312 110.484375 Z M 243.070312 41.652344 " clip-rule="nonzero"/></clipPath><clipPath id="f203f154c2"><path d="M 277.488281 41.652344 L 311.902344 76.070312 L 277.488281 110.484375 L 243.070312 76.070312 Z M 277.488281 41.652344 " clip-rule="nonzero"/></clipPath><clipPath id="3da337c83b"><path d="M 126.101562 47.21875 L 258.636719 47.21875 L 258.636719 179.753906 L 126.101562 179.753906 Z M 126.101562 47.21875 " clip-rule="nonzero"/></clipPath><clipPath id="65a8c93ba7"><path d="M 192.371094 47.21875 L 258.636719 113.484375 L 192.371094 179.753906 L 126.101562 113.484375 Z M 192.371094 47.21875 " clip-rule="nonzero"/></clipPath><linearGradient x1="-0.000000877388" gradientTransform="matrix(0.517716, 0, 0, 0.517716, 126.101701, 47.216949)" y1="128" x2="255.999997" gradientUnits="userSpaceOnUse" y2="128" id="c64347ffb8"><stop stop-opacity="1" stop-color="rgb(100%, 87.098694%, 34.899902%)" offset="0"/><stop stop-opacity="1" stop-color="rgb(100%, 86.981201%, 34.881592%)" offset="0.0078125"/><stop stop-opacity="1" stop-color="rgb(100%, 86.74469%, 34.843445%)" offset="0.015625"/><stop stop-opacity="1" stop-color="rgb(100%, 86.508179%, 34.806824%)" offset="0.0234375"/><stop stop-opacity="1" stop-color="rgb(100%, 86.273193%, 34.770203%)" offset="0.03125"/><stop stop-opacity="1" stop-color="rgb(100%, 86.036682%, 34.733582%)" offset="0.0390625"/><stop stop-opacity="1" stop-color="rgb(100%, 85.801697%, 34.69696%)" offset="0.046875"/><stop stop-opacity="1" stop-color="rgb(100%, 85.565186%, 34.660339%)" offset="0.0546875"/><stop stop-opacity="1" stop-color="rgb(100%, 85.328674%, 34.623718%)" offset="0.0625"/><stop stop-opacity="1" stop-color="rgb(100%, 85.093689%, 34.587097%)" offset="0.0703125"/><stop stop-opacity="1" stop-color="rgb(100%, 84.857178%, 34.550476%)" offset="0.078125"/><stop stop-opacity="1" stop-color="rgb(100%, 84.620667%, 34.513855%)" offset="0.0859375"/><stop stop-opacity="1" stop-color="rgb(100%, 84.385681%, 34.477234%)" offset="0.09375"/><stop stop-opacity="1" stop-color="rgb(100%, 84.14917%, 34.440613%)" offset="0.101562"/><stop stop-opacity="1" stop-color="rgb(100%, 83.914185%, 34.403992%)" offset="0.109375"/><stop stop-opacity="1" stop-color="rgb(100%, 83.677673%, 34.367371%)" offset="0.117188"/><stop stop-opacity="1" stop-color="rgb(100%, 83.441162%, 34.33075%)" offset="0.125"/><stop stop-opacity="1" stop-color="rgb(100%, 83.206177%, 34.292603%)" offset="0.132813"/><stop stop-opacity="1" stop-color="rgb(100%, 82.969666%, 34.255981%)" offset="0.140625"/><stop stop-opacity="1" stop-color="rgb(100%, 82.73468%, 34.21936%)" offset="0.148438"/><stop stop-opacity="1" stop-color="rgb(100%, 82.498169%, 34.182739%)" offset="0.15625"/><stop stop-opacity="1" stop-color="rgb(100%, 82.261658%, 34.146118%)" offset="0.164063"/><stop stop-opacity="1" stop-color="rgb(100%, 82.026672%, 34.109497%)" offset="0.171875"/><stop stop-opacity="1" stop-color="rgb(100%, 81.790161%, 34.072876%)" offset="0.179688"/><stop stop-opacity="1" stop-color="rgb(100%, 81.55365%, 34.036255%)" offset="0.1875"/><stop stop-opacity="1" stop-color="rgb(100%, 81.318665%, 33.999634%)" offset="0.195312"/><stop stop-opacity="1" stop-color="rgb(100%, 81.082153%, 33.963013%)" offset="0.203125"/><stop stop-opacity="1" stop-color="rgb(100%, 80.847168%, 33.926392%)" offset="0.210938"/><stop stop-opacity="1" stop-color="rgb(100%, 80.610657%, 33.889771%)" offset="0.21875"/><stop stop-opacity="1" stop-color="rgb(100%, 80.374146%, 33.853149%)" offset="0.226562"/><stop stop-opacity="1" stop-color="rgb(100%, 80.13916%, 33.816528%)" offset="0.234375"/><stop stop-opacity="1" stop-color="rgb(100%, 79.902649%, 33.779907%)" offset="0.242188"/><stop stop-opacity="1" stop-color="rgb(100%, 79.666138%, 33.743286%)" offset="0.25"/><stop stop-opacity="1" stop-color="rgb(100%, 79.431152%, 33.705139%)" offset="0.257813"/><stop stop-opacity="1" stop-color="rgb(100%, 79.194641%, 33.668518%)" offset="0.265625"/><stop stop-opacity="1" stop-color="rgb(100%, 78.959656%, 33.631897%)" offset="0.273438"/><stop stop-opacity="1" stop-color="rgb(100%, 78.723145%, 33.595276%)" offset="0.28125"/><stop stop-opacity="1" stop-color="rgb(100%, 78.486633%, 33.558655%)" offset="0.289063"/><stop stop-opacity="1" stop-color="rgb(100%, 78.251648%, 33.522034%)" offset="0.296875"/><stop stop-opacity="1" stop-color="rgb(100%, 78.015137%, 33.485413%)" offset="0.304688"/><stop stop-opacity="1" stop-color="rgb(100%, 77.778625%, 33.448792%)" offset="0.3125"/><stop stop-opacity="1" stop-color="rgb(100%, 77.54364%, 33.41217%)" offset="0.320313"/><stop stop-opacity="1" stop-color="rgb(100%, 77.307129%, 33.375549%)" offset="0.328125"/><stop stop-opacity="1" stop-color="rgb(100%, 77.072144%, 33.338928%)" offset="0.335938"/><stop stop-opacity="1" stop-color="rgb(100%, 76.835632%, 33.302307%)" offset="0.34375"/><stop stop-opacity="1" stop-color="rgb(100%, 76.599121%, 33.265686%)" offset="0.351563"/><stop stop-opacity="1" stop-color="rgb(100%, 76.364136%, 33.229065%)" offset="0.359375"/><stop stop-opacity="1" stop-color="rgb(100%, 76.127625%, 33.192444%)" offset="0.367188"/><stop stop-opacity="1" stop-color="rgb(100%, 75.891113%, 33.154297%)" offset="0.375"/><stop stop-opacity="1" stop-color="rgb(100%, 75.656128%, 33.117676%)" offset="0.382812"/><stop stop-opacity="1" stop-color="rgb(100%, 75.419617%, 33.081055%)" offset="0.390625"/><stop stop-opacity="1" stop-color="rgb(100%, 75.184631%, 33.044434%)" offset="0.398438"/><stop stop-opacity="1" stop-color="rgb(100%, 74.94812%, 33.007812%)" offset="0.40625"/><stop stop-opacity="1" stop-color="rgb(100%, 74.711609%, 32.971191%)" offset="0.414062"/><stop stop-opacity="1" stop-color="rgb(100%, 74.476624%, 32.93457%)" offset="0.421875"/><stop stop-opacity="1" stop-color="rgb(100%, 74.240112%, 32.897949%)" offset="0.429688"/><stop stop-opacity="1" stop-color="rgb(100%, 74.003601%, 32.861328%)" offset="0.4375"/><stop stop-opacity="1" stop-color="rgb(100%, 73.768616%, 32.824707%)" offset="0.445312"/><stop stop-opacity="1" stop-color="rgb(100%, 73.532104%, 32.788086%)" offset="0.453125"/><stop stop-opacity="1" stop-color="rgb(100%, 73.297119%, 32.751465%)" offset="0.460938"/><stop stop-opacity="1" stop-color="rgb(100%, 73.060608%, 32.714844%)" offset="0.46875"/><stop stop-opacity="1" stop-color="rgb(100%, 72.824097%, 32.678223%)" offset="0.476562"/><stop stop-opacity="1" stop-color="rgb(100%, 72.589111%, 32.641602%)" offset="0.484375"/><stop stop-opacity="1" stop-color="rgb(100%, 72.3526%, 32.60498%)" offset="0.492188"/><stop stop-opacity="1" stop-color="rgb(100%, 72.116089%, 32.566833%)" offset="0.5"/><stop stop-opacity="1" stop-color="rgb(100%, 71.881104%, 32.530212%)" offset="0.507812"/><stop stop-opacity="1" stop-color="rgb(100%, 71.644592%, 32.493591%)" offset="0.515625"/><stop stop-opacity="1" stop-color="rgb(100%, 71.409607%, 32.45697%)" offset="0.523438"/><stop stop-opacity="1" stop-color="rgb(100%, 71.173096%, 32.420349%)" offset="0.53125"/><stop stop-opacity="1" stop-color="rgb(100%, 70.936584%, 32.383728%)" offset="0.539062"/><stop stop-opacity="1" stop-color="rgb(100%, 70.701599%, 32.347107%)" offset="0.546875"/><stop stop-opacity="1" stop-color="rgb(100%, 70.465088%, 32.310486%)" offset="0.554688"/><stop stop-opacity="1" stop-color="rgb(100%, 70.228577%, 32.273865%)" offset="0.5625"/><stop stop-opacity="1" stop-color="rgb(100%, 69.993591%, 32.237244%)" offset="0.570312"/><stop stop-opacity="1" stop-color="rgb(100%, 69.75708%, 32.200623%)" offset="0.578125"/><stop stop-opacity="1" stop-color="rgb(100%, 69.522095%, 32.164001%)" offset="0.585938"/><stop stop-opacity="1" stop-color="rgb(100%, 69.285583%, 32.12738%)" offset="0.59375"/><stop stop-opacity="1" stop-color="rgb(100%, 69.049072%, 32.090759%)" offset="0.601562"/><stop stop-opacity="1" stop-color="rgb(100%, 68.814087%, 32.054138%)" offset="0.609375"/><stop stop-opacity="1" stop-color="rgb(100%, 68.577576%, 32.017517%)" offset="0.617188"/><stop stop-opacity="1" stop-color="rgb(100%, 68.341064%, 31.97937%)" offset="0.625"/><stop stop-opacity="1" stop-color="rgb(100%, 68.106079%, 31.942749%)" offset="0.632812"/><stop stop-opacity="1" stop-color="rgb(100%, 67.869568%, 31.906128%)" offset="0.640625"/><stop stop-opacity="1" stop-color="rgb(100%, 67.634583%, 31.869507%)" offset="0.648438"/><stop stop-opacity="1" stop-color="rgb(100%, 67.398071%, 31.832886%)" offset="0.65625"/><stop stop-opacity="1" stop-color="rgb(100%, 67.16156%, 31.796265%)" offset="0.664062"/><stop stop-opacity="1" stop-color="rgb(100%, 66.926575%, 31.759644%)" offset="0.671875"/><stop stop-opacity="1" stop-color="rgb(100%, 66.690063%, 31.723022%)" offset="0.679688"/><stop stop-opacity="1" stop-color="rgb(100%, 66.453552%, 31.686401%)" offset="0.6875"/><stop stop-opacity="1" stop-color="rgb(100%, 66.218567%, 31.64978%)" offset="0.695312"/><stop stop-opacity="1" stop-color="rgb(100%, 65.982056%, 31.613159%)" offset="0.703125"/><stop stop-opacity="1" stop-color="rgb(100%, 65.74707%, 31.576538%)" offset="0.710938"/><stop stop-opacity="1" stop-color="rgb(100%, 65.510559%, 31.539917%)" offset="0.71875"/><stop stop-opacity="1" stop-color="rgb(100%, 65.274048%, 31.503296%)" offset="0.726562"/><stop stop-opacity="1" stop-color="rgb(100%, 65.039062%, 31.466675%)" offset="0.734375"/><stop stop-opacity="1" stop-color="rgb(100%, 64.802551%, 31.428528%)" offset="0.742188"/><stop stop-opacity="1" stop-color="rgb(100%, 64.56604%, 31.391907%)" offset="0.75"/><stop stop-opacity="1" stop-color="rgb(100%, 64.331055%, 31.355286%)" offset="0.757812"/><stop stop-opacity="1" stop-color="rgb(100%, 64.094543%, 31.318665%)" offset="0.765625"/><stop stop-opacity="1" stop-color="rgb(100%, 63.859558%, 31.282043%)" offset="0.773437"/><stop stop-opacity="1" stop-color="rgb(100%, 63.623047%, 31.245422%)" offset="0.78125"/><stop stop-opacity="1" stop-color="rgb(100%, 63.386536%, 31.208801%)" offset="0.789062"/><stop stop-opacity="1" stop-color="rgb(100%, 63.15155%, 31.17218%)" offset="0.796875"/><stop stop-opacity="1" stop-color="rgb(100%, 62.915039%, 31.135559%)" offset="0.804687"/><stop stop-opacity="1" stop-color="rgb(100%, 62.678528%, 31.098938%)" offset="0.8125"/><stop stop-opacity="1" stop-color="rgb(100%, 62.443542%, 31.062317%)" offset="0.820312"/><stop stop-opacity="1" stop-color="rgb(100%, 62.207031%, 31.025696%)" offset="0.828125"/><stop stop-opacity="1" stop-color="rgb(100%, 61.972046%, 30.989075%)" offset="0.835937"/><stop stop-opacity="1" stop-color="rgb(100%, 61.735535%, 30.952454%)" offset="0.84375"/><stop stop-opacity="1" stop-color="rgb(100%, 61.499023%, 30.915833%)" offset="0.851562"/><stop stop-opacity="1" stop-color="rgb(100%, 61.264038%, 30.879211%)" offset="0.859375"/><stop stop-opacity="1" stop-color="rgb(100%, 61.027527%, 30.841064%)" offset="0.867187"/><stop stop-opacity="1" stop-color="rgb(100%, 60.791016%, 30.804443%)" offset="0.875"/><stop stop-opacity="1" stop-color="rgb(100%, 60.55603%, 30.767822%)" offset="0.882812"/><stop stop-opacity="1" stop-color="rgb(100%, 60.319519%, 30.731201%)" offset="0.890625"/><stop stop-opacity="1" stop-color="rgb(100%, 60.084534%, 30.69458%)" offset="0.898437"/><stop stop-opacity="1" stop-color="rgb(100%, 59.848022%, 30.657959%)" offset="0.90625"/><stop stop-opacity="1" stop-color="rgb(100%, 59.611511%, 30.621338%)" offset="0.914062"/><stop stop-opacity="1" stop-color="rgb(100%, 59.376526%, 30.584717%)" offset="0.921875"/><stop stop-opacity="1" stop-color="rgb(100%, 59.140015%, 30.548096%)" offset="0.929687"/><stop stop-opacity="1" stop-color="rgb(100%, 58.903503%, 30.511475%)" offset="0.9375"/><stop stop-opacity="1" stop-color="rgb(100%, 58.668518%, 30.474854%)" offset="0.945312"/><stop stop-opacity="1" stop-color="rgb(100%, 58.432007%, 30.438232%)" offset="0.953125"/><stop stop-opacity="1" stop-color="rgb(100%, 58.197021%, 30.401611%)" offset="0.960937"/><stop stop-opacity="1" stop-color="rgb(100%, 57.96051%, 30.36499%)" offset="0.96875"/><stop stop-opacity="1" stop-color="rgb(100%, 57.723999%, 30.328369%)" offset="0.976562"/><stop stop-opacity="1" stop-color="rgb(100%, 57.489014%, 30.291748%)" offset="0.984375"/><stop stop-opacity="1" stop-color="rgb(100%, 57.252502%, 30.253601%)" offset="0.992187"/><stop stop-opacity="1" stop-color="rgb(100%, 57.015991%, 30.21698%)" offset="1"/></linearGradient></defs><g clip-path="url(#842870b827)"><g clip-path="url(#40e0513494)"><g clip-path="url(#cec37e01c8)"><path fill="url(#d42a18c4db)" d="M 255.636719 -23.519531 L 16.910156 215.203125 L 255.636719 453.929688 L 494.363281 215.203125 Z M 255.636719 -23.519531 " fill-rule="nonzero"/></g></g></g><g clip-path="url(#a6de8f1d91)"><g clip-path="url(#167d181169)"><path fill="#000000" d="M 0.00390625 138.746094 L 59.683594 79.066406 L 181.144531 200.527344 L 121.464844 260.210938 Z M 0.00390625 138.746094 " fill-opacity="1" fill-rule="nonzero"/></g></g><g clip-path="url(#3bd5f281db)"><g clip-path="url(#31f8241bdc)"><path fill="#000000" d="M 73.914062 38.183594 L 142.742188 38.183594 L 142.742188 107.015625 L 73.914062 107.015625 Z M 73.914062 38.183594 " fill-opacity="1" fill-rule="nonzero"/></g></g><g clip-path="url(#e2c0a58413)"><g clip-path="url(#f203f154c2)"><path fill="#000000" d="M 243.070312 41.652344 L 311.902344 41.652344 L 311.902344 110.484375 L 243.070312 110.484375 Z M 243.070312 41.652344 " fill-opacity="1" fill-rule="nonzero"/></g></g><g fill="#ffffff" fill-opacity="1"><g transform="translate(48.809986, 151.754063)"><g><path d="M -6.96875 8.0625 C -8.195312 6.832031 -9.140625 5.640625 -9.796875 4.484375 L -5.28125 -0.03125 C -4.582031 1.125 -3.84375 2.09375 -3.0625 2.875 C -1.882812 4.050781 -0.671875 4.523438 0.578125 4.296875 C 1.835938 4.078125 3.253906 3.179688 4.828125 1.609375 L 28.78125 -22.34375 L 34.203125 -16.921875 L 10.28125 7 C 7.300781 9.976562 4.347656 11.566406 1.421875 11.765625 C -1.503906 11.960938 -4.300781 10.726562 -6.96875 8.0625 Z M -6.96875 8.0625 "/></g></g><g transform="translate(60.664691, 163.608769)"><g><path d="M 25.421875 11.203125 C 23.109375 13.515625 20.453125 14.503906 17.453125 14.171875 C 14.460938 13.847656 11.488281 12.207031 8.53125 9.25 C 5.800781 6.519531 3.898438 3.585938 2.828125 0.453125 L 7.859375 -4.578125 C 8.828125 -2.085938 9.75 -0.0859375 10.625 1.421875 C 11.5 2.929688 12.429688 4.179688 13.421875 5.171875 C 14.609375 6.359375 15.75 7.046875 16.84375 7.234375 C 17.9375 7.421875 18.9375 7.0625 19.84375 6.15625 C 20.34375 5.65625 20.644531 5.066406 20.75 4.390625 C 20.863281 3.722656 20.828125 2.9375 20.640625 2.03125 C 20.460938 1.132812 19.929688 -0.546875 19.046875 -3.015625 C 18.210938 -5.304688 17.742188 -7.175781 17.640625 -8.625 C 17.546875 -10.082031 17.710938 -11.492188 18.140625 -12.859375 C 18.578125 -14.234375 19.394531 -15.519531 20.59375 -16.71875 C 22.851562 -18.976562 25.398438 -19.988281 28.234375 -19.75 C 31.066406 -19.507812 33.832031 -18.039062 36.53125 -15.34375 C 37.851562 -14.019531 38.957031 -12.59375 39.84375 -11.0625 C 40.738281 -9.539062 41.5625 -7.832031 42.3125 -5.9375 L 36.34375 -3.46875 C 35.539062 -5.394531 34.804688 -6.914062 34.140625 -8.03125 C 33.472656 -9.144531 32.707031 -10.132812 31.84375 -11 C 30.820312 -12.019531 29.796875 -12.566406 28.765625 -12.640625 C 27.734375 -12.710938 26.832031 -12.363281 26.0625 -11.59375 C 25.582031 -11.113281 25.273438 -10.582031 25.140625 -10 C 25.015625 -9.425781 25.023438 -8.726562 25.171875 -7.90625 C 25.328125 -7.09375 25.878906 -5.359375 26.828125 -2.703125 C 28.066406 0.828125 28.554688 3.613281 28.296875 5.65625 C 28.035156 7.695312 27.078125 9.546875 25.421875 11.203125 Z M 25.421875 11.203125 "/></g></g><g transform="translate(80.387564, 183.331642)"><g><path d="M 23.890625 23.890625 L 17.703125 17.703125 L 21.421875 2.078125 L 5.796875 5.796875 L 0 0 L 21.671875 -4.703125 L 26.109375 -25.015625 L 32.078125 -19.046875 L 28.390625 -4.328125 L 43 -8.125 L 48.828125 -2.296875 L 28.125 2.375 Z M 23.890625 23.890625 "/></g></g></g><g fill="#000000" fill-opacity="1"><g transform="translate(229.588728, 255.438874)"><g><path d="M 9.171875 -27.671875 C 12.054688 -24.785156 13.71875 -21.800781 14.15625 -18.71875 C 14.601562 -15.644531 13.707031 -12.988281 11.46875 -10.75 C 9.164062 -8.445312 6.625 -7.363281 3.84375 -7.5 L 12.9375 1.59375 L 9.71875 4.8125 L -16.46875 -21.375 L -13.515625 -24.328125 L -11.25 -22.375 C -11.570312 -25.320312 -10.5625 -27.96875 -8.21875 -30.3125 C -5.9375 -32.59375 -3.28125 -33.535156 -0.25 -33.140625 C 2.78125 -32.742188 5.820312 -31.019531 8.875 -27.96875 Z M 5.578125 -24.796875 C 3.441406 -26.929688 1.304688 -28.160156 -0.828125 -28.484375 C -2.972656 -28.816406 -4.835938 -28.191406 -6.421875 -26.609375 C -8.390625 -24.640625 -9 -22.300781 -8.25 -19.59375 L 0.78125 -10.5625 C 3.5 -9.800781 5.851562 -10.414062 7.84375 -12.40625 C 9.394531 -13.957031 10.007812 -15.804688 9.6875 -17.953125 C 9.363281 -20.097656 7.992188 -22.378906 5.578125 -24.796875 Z M 5.578125 -24.796875 "/></g></g><g transform="translate(249.678782, 235.34882)"><g><path d="M 5.96875 -5.96875 L 2.734375 -2.734375 L -16.1875 -21.65625 L -12.953125 -24.890625 Z M -21.46875 -26.40625 C -21.988281 -26.925781 -22.269531 -27.523438 -22.3125 -28.203125 C -22.363281 -28.890625 -22.070312 -29.546875 -21.4375 -30.171875 C -20.8125 -30.804688 -20.148438 -31.101562 -19.453125 -31.0625 C -18.765625 -31.03125 -18.15625 -30.75 -17.625 -30.21875 C -17.101562 -29.695312 -16.832031 -29.097656 -16.8125 -28.421875 C -16.789062 -27.742188 -17.09375 -27.085938 -17.71875 -26.453125 C -18.351562 -25.828125 -19.003906 -25.53125 -19.671875 -25.5625 C -20.335938 -25.59375 -20.9375 -25.875 -21.46875 -26.40625 Z M -21.46875 -26.40625 "/></g></g><g transform="translate(258.368736, 226.658866)"><g><path d="M -13.421875 -24.421875 L -10.9375 -22.15625 C -11.300781 -25.414062 -10.316406 -28.210938 -7.984375 -30.546875 C -3.984375 -34.546875 0.285156 -34.304688 4.828125 -29.828125 L 17.328125 -17.328125 L 14.09375 -14.09375 L 1.578125 -26.609375 C 0.203125 -27.960938 -1.113281 -28.65625 -2.375 -28.6875 C -3.644531 -28.726562 -4.925781 -28.101562 -6.21875 -26.8125 C -7.257812 -25.769531 -7.898438 -24.570312 -8.140625 -23.21875 C -8.378906 -21.863281 -8.269531 -20.507812 -7.8125 -19.15625 L 5.671875 -5.671875 L 2.453125 -2.453125 L -16.46875 -21.375 Z M -13.421875 -24.421875 "/></g></g><g transform="translate(278.126578, 206.901023)"><g><path d="M 10.65625 -9.9375 C 8.09375 -7.375 5.160156 -6.128906 1.859375 -6.203125 C -1.429688 -6.285156 -4.488281 -7.738281 -7.3125 -10.5625 L -7.90625 -11.15625 C -9.78125 -13.03125 -11.09375 -15.0625 -11.84375 -17.25 C -12.601562 -19.445312 -12.753906 -21.601562 -12.296875 -23.71875 C -11.847656 -25.84375 -10.867188 -27.660156 -9.359375 -29.171875 C -6.898438 -31.628906 -4.179688 -32.726562 -1.203125 -32.46875 C 1.773438 -32.207031 4.773438 -30.566406 7.796875 -27.546875 L 9.140625 -26.203125 L -3.671875 -13.390625 C -1.765625 -11.566406 0.285156 -10.601562 2.484375 -10.5 C 4.679688 -10.394531 6.582031 -11.144531 8.1875 -12.75 C 9.332031 -13.894531 10.066406 -15.097656 10.390625 -16.359375 C 10.710938 -17.617188 10.785156 -18.929688 10.609375 -20.296875 L 14.140625 -20.734375 C 14.992188 -16.710938 13.832031 -13.113281 10.65625 -9.9375 Z M -6.703125 -26.515625 C -8.015625 -25.203125 -8.632812 -23.625 -8.5625 -21.78125 C -8.5 -19.945312 -7.722656 -18.066406 -6.234375 -16.140625 L 3.25 -25.625 L 3 -25.875 C 1.269531 -27.4375 -0.441406 -28.269531 -2.140625 -28.375 C -3.835938 -28.476562 -5.359375 -27.859375 -6.703125 -26.515625 Z M -6.703125 -26.515625 "/></g></g></g><g clip-path="url(#3da337c83b)"><g clip-path="url(#65a8c93ba7)"><path fill="url(#c64347ffb8)" d="M 126.101562 47.21875 L 126.101562 179.753906 L 258.636719 179.753906 L 258.636719 47.21875 Z M 126.101562 47.21875 " fill-rule="nonzero"/></g></g></svg>