<svg xmlns="http://www.w3.org/2000/svg" xmlns:xlink="http://www.w3.org/1999/xlink" width="500" zoomAndPan="magnify" viewBox="0 0 375 374.999991" height="500" preserveAspectRatio="xMidYMid meet" version="1.0"><defs><g/><clipPath id="e0d18f0f50"><path d="M 136 95 L 375 95 L 375 335 L 136 335 Z M 136 95 " clip-rule="nonzero"/></clipPath><clipPath id="35512bc45f"><path d="M 315.316406 95.839844 L 375 155.523438 L 195.953125 334.566406 L 136.273438 274.886719 Z M 315.316406 95.839844 " clip-rule="nonzero"/></clipPath><clipPath id="2ee8fbb86a"><path d="M 0 79 L 182 79 L 182 261 L 0 261 Z M 0 79 " clip-rule="nonzero"/></clipPath><clipPath id="9bb19027aa"><path d="M 0.00390625 138.746094 L 59.683594 79.066406 L 181.175781 200.558594 L 121.496094 260.242188 Z M 0.00390625 138.746094 " clip-rule="nonzero"/></clipPath><clipPath id="c7daf227e6"><path d="M 73.914062 38.183594 L 142.742188 38.183594 L 142.742188 107.015625 L 73.914062 107.015625 Z M 73.914062 38.183594 " clip-rule="nonzero"/></clipPath><clipPath id="3bf46ca1ca"><path d="M 108.328125 38.183594 L 142.742188 72.597656 L 108.328125 107.015625 L 73.914062 72.597656 Z M 108.328125 38.183594 " clip-rule="nonzero"/></clipPath><clipPath id="806af52ae8"><path d="M 243.070312 41.652344 L 311.902344 41.652344 L 311.902344 110.484375 L 243.070312 110.484375 Z M 243.070312 41.652344 " clip-rule="nonzero"/></clipPath><clipPath id="ff998172ce"><path d="M 277.488281 41.652344 L 311.902344 76.070312 L 277.488281 110.484375 L 243.070312 76.070312 Z M 277.488281 41.652344 " clip-rule="nonzero"/></clipPath><clipPath id="d23f0589c9"><path d="M 126.101562 47.21875 L 258.636719 47.21875 L 258.636719 179.753906 L 126.101562 179.753906 Z M 126.101562 47.21875 " clip-rule="nonzero"/></clipPath><clipPath id="e7439737e2"><path d="M 192.371094 47.21875 L 258.636719 113.484375 L 192.371094 179.753906 L 126.101562 113.484375 Z M 192.371094 47.21875 " clip-rule="nonzero"/></clipPath><linearGradient x1="-0.000000877388" gradientTransform="matrix(0.517716, 0, 0, 0.517716, 126.101701, 47.216949)" y1="128" x2="255.999997" gradientUnits="userSpaceOnUse" y2="128" id="5f01ce8c6e"><stop stop-opacity="1" stop-color="rgb(0%, 0%, 0%)" offset="0"/><stop stop-opacity="1" stop-color="rgb(0.175476%, 0.175476%, 0.175476%)" offset="0.0078125"/><stop stop-opacity="1" stop-color="rgb(0.526428%, 0.526428%, 0.526428%)" offset="0.015625"/><stop stop-opacity="1" stop-color="rgb(0.878906%, 0.878906%, 0.878906%)" offset="0.0234375"/><stop stop-opacity="1" stop-color="rgb(1.231384%, 1.231384%, 1.231384%)" offset="0.03125"/><stop stop-opacity="1" stop-color="rgb(1.583862%, 1.583862%, 1.583862%)" offset="0.0390625"/><stop stop-opacity="1" stop-color="rgb(1.93634%, 1.93634%, 1.93634%)" offset="0.046875"/><stop stop-opacity="1" stop-color="rgb(2.288818%, 2.288818%, 2.288818%)" offset="0.0546875"/><stop stop-opacity="1" stop-color="rgb(2.641296%, 2.641296%, 2.641296%)" offset="0.0625"/><stop stop-opacity="1" stop-color="rgb(2.993774%, 2.993774%, 2.993774%)" offset="0.0703125"/><stop stop-opacity="1" stop-color="rgb(3.346252%, 3.346252%, 3.346252%)" offset="0.078125"/><stop stop-opacity="1" stop-color="rgb(3.69873%, 3.69873%, 3.69873%)" offset="0.0859375"/><stop stop-opacity="1" stop-color="rgb(4.051208%, 4.051208%, 4.051208%)" offset="0.09375"/><stop stop-opacity="1" stop-color="rgb(4.402161%, 4.402161%, 4.402161%)" offset="0.101562"/><stop stop-opacity="1" stop-color="rgb(4.754639%, 4.754639%, 4.754639%)" offset="0.109375"/><stop stop-opacity="1" stop-color="rgb(5.107117%, 5.107117%, 5.107117%)" offset="0.117188"/><stop stop-opacity="1" stop-color="rgb(5.459595%, 5.459595%, 5.459595%)" offset="0.125"/><stop stop-opacity="1" stop-color="rgb(5.812073%, 5.812073%, 5.812073%)" offset="0.132813"/><stop stop-opacity="1" stop-color="rgb(6.164551%, 6.164551%, 6.164551%)" offset="0.140625"/><stop stop-opacity="1" stop-color="rgb(6.517029%, 6.517029%, 6.517029%)" offset="0.148438"/><stop stop-opacity="1" stop-color="rgb(6.869507%, 6.869507%, 6.869507%)" offset="0.15625"/><stop stop-opacity="1" stop-color="rgb(7.221985%, 7.221985%, 7.221985%)" offset="0.164063"/><stop stop-opacity="1" stop-color="rgb(7.574463%, 7.574463%, 7.574463%)" offset="0.171875"/><stop stop-opacity="1" stop-color="rgb(7.926941%, 7.926941%, 7.926941%)" offset="0.179688"/><stop stop-opacity="1" stop-color="rgb(8.277893%, 8.277893%, 8.277893%)" offset="0.1875"/><stop stop-opacity="1" stop-color="rgb(8.630371%, 8.630371%, 8.630371%)" offset="0.195312"/><stop stop-opacity="1" stop-color="rgb(8.982849%, 8.982849%, 8.982849%)" offset="0.203125"/><stop stop-opacity="1" stop-color="rgb(9.335327%, 9.335327%, 9.335327%)" offset="0.210938"/><stop stop-opacity="1" stop-color="rgb(9.687805%, 9.687805%, 9.687805%)" offset="0.21875"/><stop stop-opacity="1" stop-color="rgb(10.040283%, 10.040283%, 10.040283%)" offset="0.226562"/><stop stop-opacity="1" stop-color="rgb(10.392761%, 10.392761%, 10.392761%)" offset="0.234375"/><stop stop-opacity="1" stop-color="rgb(10.745239%, 10.745239%, 10.745239%)" offset="0.242188"/><stop stop-opacity="1" stop-color="rgb(11.097717%, 11.097717%, 11.097717%)" offset="0.25"/><stop stop-opacity="1" stop-color="rgb(11.450195%, 11.450195%, 11.450195%)" offset="0.257813"/><stop stop-opacity="1" stop-color="rgb(11.802673%, 11.802673%, 11.802673%)" offset="0.265625"/><stop stop-opacity="1" stop-color="rgb(12.155151%, 12.155151%, 12.155151%)" offset="0.273438"/><stop stop-opacity="1" stop-color="rgb(12.506104%, 12.506104%, 12.506104%)" offset="0.28125"/><stop stop-opacity="1" stop-color="rgb(12.858582%, 12.858582%, 12.858582%)" offset="0.289063"/><stop stop-opacity="1" stop-color="rgb(13.21106%, 13.21106%, 13.21106%)" offset="0.296875"/><stop stop-opacity="1" stop-color="rgb(13.563538%, 13.563538%, 13.563538%)" offset="0.304688"/><stop stop-opacity="1" stop-color="rgb(13.916016%, 13.916016%, 13.916016%)" offset="0.3125"/><stop stop-opacity="1" stop-color="rgb(14.268494%, 14.268494%, 14.268494%)" offset="0.320313"/><stop stop-opacity="1" stop-color="rgb(14.620972%, 14.620972%, 14.620972%)" offset="0.328125"/><stop stop-opacity="1" stop-color="rgb(14.97345%, 14.97345%, 14.97345%)" offset="0.335938"/><stop stop-opacity="1" stop-color="rgb(15.325928%, 15.325928%, 15.325928%)" offset="0.34375"/><stop stop-opacity="1" stop-color="rgb(15.678406%, 15.678406%, 15.678406%)" offset="0.351563"/><stop stop-opacity="1" stop-color="rgb(16.030884%, 16.030884%, 16.030884%)" offset="0.359375"/><stop stop-opacity="1" stop-color="rgb(16.381836%, 16.381836%, 16.381836%)" offset="0.367188"/><stop stop-opacity="1" stop-color="rgb(16.734314%, 16.734314%, 16.734314%)" offset="0.375"/><stop stop-opacity="1" stop-color="rgb(17.086792%, 17.086792%, 17.086792%)" offset="0.382812"/><stop stop-opacity="1" stop-color="rgb(17.43927%, 17.43927%, 17.43927%)" offset="0.390625"/><stop stop-opacity="1" stop-color="rgb(17.791748%, 17.791748%, 17.791748%)" offset="0.398438"/><stop stop-opacity="1" stop-color="rgb(18.144226%, 18.144226%, 18.144226%)" offset="0.40625"/><stop stop-opacity="1" stop-color="rgb(18.496704%, 18.496704%, 18.496704%)" offset="0.414062"/><stop stop-opacity="1" stop-color="rgb(18.849182%, 18.849182%, 18.849182%)" offset="0.421875"/><stop stop-opacity="1" stop-color="rgb(19.20166%, 19.20166%, 19.20166%)" offset="0.429688"/><stop stop-opacity="1" stop-color="rgb(19.554138%, 19.554138%, 19.554138%)" offset="0.4375"/><stop stop-opacity="1" stop-color="rgb(19.906616%, 19.906616%, 19.906616%)" offset="0.445312"/><stop stop-opacity="1" stop-color="rgb(20.257568%, 20.257568%, 20.257568%)" offset="0.453125"/><stop stop-opacity="1" stop-color="rgb(20.610046%, 20.610046%, 20.610046%)" offset="0.460938"/><stop stop-opacity="1" stop-color="rgb(20.962524%, 20.962524%, 20.962524%)" offset="0.46875"/><stop stop-opacity="1" stop-color="rgb(21.315002%, 21.315002%, 21.315002%)" offset="0.476562"/><stop stop-opacity="1" stop-color="rgb(21.66748%, 21.66748%, 21.66748%)" offset="0.484375"/><stop stop-opacity="1" stop-color="rgb(22.019958%, 22.019958%, 22.019958%)" offset="0.492188"/><stop stop-opacity="1" stop-color="rgb(22.372437%, 22.372437%, 22.372437%)" offset="0.5"/><stop stop-opacity="1" stop-color="rgb(22.724915%, 22.724915%, 22.724915%)" offset="0.507812"/><stop stop-opacity="1" stop-color="rgb(23.077393%, 23.077393%, 23.077393%)" offset="0.515625"/><stop stop-opacity="1" stop-color="rgb(23.429871%, 23.429871%, 23.429871%)" offset="0.523438"/><stop stop-opacity="1" stop-color="rgb(23.782349%, 23.782349%, 23.782349%)" offset="0.53125"/><stop stop-opacity="1" stop-color="rgb(24.134827%, 24.134827%, 24.134827%)" offset="0.539062"/><stop stop-opacity="1" stop-color="rgb(24.485779%, 24.485779%, 24.485779%)" offset="0.546875"/><stop stop-opacity="1" stop-color="rgb(24.838257%, 24.838257%, 24.838257%)" offset="0.554688"/><stop stop-opacity="1" stop-color="rgb(25.190735%, 25.190735%, 25.190735%)" offset="0.5625"/><stop stop-opacity="1" stop-color="rgb(25.543213%, 25.543213%, 25.543213%)" offset="0.570312"/><stop stop-opacity="1" stop-color="rgb(25.895691%, 25.895691%, 25.895691%)" offset="0.578125"/><stop stop-opacity="1" stop-color="rgb(26.248169%, 26.248169%, 26.248169%)" offset="0.585938"/><stop stop-opacity="1" stop-color="rgb(26.600647%, 26.600647%, 26.600647%)" offset="0.59375"/><stop stop-opacity="1" stop-color="rgb(26.953125%, 26.953125%, 26.953125%)" offset="0.601562"/><stop stop-opacity="1" stop-color="rgb(27.305603%, 27.305603%, 27.305603%)" offset="0.609375"/><stop stop-opacity="1" stop-color="rgb(27.658081%, 27.658081%, 27.658081%)" offset="0.617188"/><stop stop-opacity="1" stop-color="rgb(28.010559%, 28.010559%, 28.010559%)" offset="0.625"/><stop stop-opacity="1" stop-color="rgb(28.361511%, 28.361511%, 28.361511%)" offset="0.632812"/><stop stop-opacity="1" stop-color="rgb(28.713989%, 28.713989%, 28.713989%)" offset="0.640625"/><stop stop-opacity="1" stop-color="rgb(29.066467%, 29.066467%, 29.066467%)" offset="0.648438"/><stop stop-opacity="1" stop-color="rgb(29.418945%, 29.418945%, 29.418945%)" offset="0.65625"/><stop stop-opacity="1" stop-color="rgb(29.771423%, 29.771423%, 29.771423%)" offset="0.664062"/><stop stop-opacity="1" stop-color="rgb(30.123901%, 30.123901%, 30.123901%)" offset="0.671875"/><stop stop-opacity="1" stop-color="rgb(30.476379%, 30.476379%, 30.476379%)" offset="0.679688"/><stop stop-opacity="1" stop-color="rgb(30.828857%, 30.828857%, 30.828857%)" offset="0.6875"/><stop stop-opacity="1" stop-color="rgb(31.181335%, 31.181335%, 31.181335%)" offset="0.695312"/><stop stop-opacity="1" stop-color="rgb(31.533813%, 31.533813%, 31.533813%)" offset="0.703125"/><stop stop-opacity="1" stop-color="rgb(31.886292%, 31.886292%, 31.886292%)" offset="0.710938"/><stop stop-opacity="1" stop-color="rgb(32.237244%, 32.237244%, 32.237244%)" offset="0.71875"/><stop stop-opacity="1" stop-color="rgb(32.589722%, 32.589722%, 32.589722%)" offset="0.726562"/><stop stop-opacity="1" stop-color="rgb(32.9422%, 32.9422%, 32.9422%)" offset="0.734375"/><stop stop-opacity="1" stop-color="rgb(33.294678%, 33.294678%, 33.294678%)" offset="0.742188"/><stop stop-opacity="1" stop-color="rgb(33.647156%, 33.647156%, 33.647156%)" offset="0.75"/><stop stop-opacity="1" stop-color="rgb(33.999634%, 33.999634%, 33.999634%)" offset="0.757812"/><stop stop-opacity="1" stop-color="rgb(34.352112%, 34.352112%, 34.352112%)" offset="0.765625"/><stop stop-opacity="1" stop-color="rgb(34.70459%, 34.70459%, 34.70459%)" offset="0.773437"/><stop stop-opacity="1" stop-color="rgb(35.057068%, 35.057068%, 35.057068%)" offset="0.78125"/><stop stop-opacity="1" stop-color="rgb(35.409546%, 35.409546%, 35.409546%)" offset="0.789062"/><stop stop-opacity="1" stop-color="rgb(35.762024%, 35.762024%, 35.762024%)" offset="0.796875"/><stop stop-opacity="1" stop-color="rgb(36.114502%, 36.114502%, 36.114502%)" offset="0.804687"/><stop stop-opacity="1" stop-color="rgb(36.465454%, 36.465454%, 36.465454%)" offset="0.8125"/><stop stop-opacity="1" stop-color="rgb(36.817932%, 36.817932%, 36.817932%)" offset="0.820312"/><stop stop-opacity="1" stop-color="rgb(37.17041%, 37.17041%, 37.17041%)" offset="0.828125"/><stop stop-opacity="1" stop-color="rgb(37.522888%, 37.522888%, 37.522888%)" offset="0.835937"/><stop stop-opacity="1" stop-color="rgb(37.875366%, 37.875366%, 37.875366%)" offset="0.84375"/><stop stop-opacity="1" stop-color="rgb(38.227844%, 38.227844%, 38.227844%)" offset="0.851562"/><stop stop-opacity="1" stop-color="rgb(38.580322%, 38.580322%, 38.580322%)" offset="0.859375"/><stop stop-opacity="1" stop-color="rgb(38.9328%, 38.9328%, 38.9328%)" offset="0.867187"/><stop stop-opacity="1" stop-color="rgb(39.285278%, 39.285278%, 39.285278%)" offset="0.875"/><stop stop-opacity="1" stop-color="rgb(39.637756%, 39.637756%, 39.637756%)" offset="0.882812"/><stop stop-opacity="1" stop-color="rgb(39.990234%, 39.990234%, 39.990234%)" offset="0.890625"/><stop stop-opacity="1" stop-color="rgb(40.341187%, 40.341187%, 40.341187%)" offset="0.898437"/><stop stop-opacity="1" stop-color="rgb(40.693665%, 40.693665%, 40.693665%)" offset="0.90625"/><stop stop-opacity="1" stop-color="rgb(41.046143%, 41.046143%, 41.046143%)" offset="0.914062"/><stop stop-opacity="1" stop-color="rgb(41.398621%, 41.398621%, 41.398621%)" offset="0.921875"/><stop stop-opacity="1" stop-color="rgb(41.751099%, 41.751099%, 41.751099%)" offset="0.929687"/><stop stop-opacity="1" stop-color="rgb(42.103577%, 42.103577%, 42.103577%)" offset="0.9375"/><stop stop-opacity="1" stop-color="rgb(42.456055%, 42.456055%, 42.456055%)" offset="0.945312"/><stop stop-opacity="1" stop-color="rgb(42.808533%, 42.808533%, 42.808533%)" offset="0.953125"/><stop stop-opacity="1" stop-color="rgb(43.161011%, 43.161011%, 43.161011%)" offset="0.960937"/><stop stop-opacity="1" stop-color="rgb(43.513489%, 43.513489%, 43.513489%)" offset="0.96875"/><stop stop-opacity="1" stop-color="rgb(43.865967%, 43.865967%, 43.865967%)" offset="0.976562"/><stop stop-opacity="1" stop-color="rgb(44.216919%, 44.216919%, 44.216919%)" offset="0.984375"/><stop stop-opacity="1" stop-color="rgb(44.569397%, 44.569397%, 44.569397%)" offset="0.992187"/><stop stop-opacity="1" stop-color="rgb(44.921875%, 44.921875%, 44.921875%)" offset="1"/></linearGradient></defs><g clip-path="url(#e0d18f0f50)"><g clip-path="url(#35512bc45f)"><path fill="#77c1d2" d="M 315.316406 95.839844 L 375 155.523438 L 195.953125 334.566406 L 136.273438 274.886719 Z M 315.316406 95.839844 " fill-opacity="1" fill-rule="nonzero"/></g></g><g clip-path="url(#2ee8fbb86a)"><g clip-path="url(#9bb19027aa)"><path fill="#000000" d="M 0.00390625 138.746094 L 59.683594 79.066406 L 181.144531 200.527344 L 121.464844 260.210938 Z M 0.00390625 138.746094 " fill-opacity="1" fill-rule="nonzero"/></g></g><g clip-path="url(#c7daf227e6)"><g clip-path="url(#3bf46ca1ca)"><path fill="#000000" d="M 73.914062 38.183594 L 142.742188 38.183594 L 142.742188 107.015625 L 73.914062 107.015625 Z M 73.914062 38.183594 " fill-opacity="1" fill-rule="nonzero"/></g></g><g clip-path="url(#806af52ae8)"><g clip-path="url(#ff998172ce)"><path fill="#a6a6a6" d="M 243.070312 41.652344 L 311.902344 41.652344 L 311.902344 110.484375 L 243.070312 110.484375 Z M 243.070312 41.652344 " fill-opacity="1" fill-rule="nonzero"/></g></g><g fill="#ffffff" fill-opacity="1"><g transform="translate(48.809986, 151.754063)"><g><path d="M -6.96875 8.0625 C -8.195312 6.832031 -9.140625 5.640625 -9.796875 4.484375 L -5.28125 -0.03125 C -4.582031 1.125 -3.84375 2.09375 -3.0625 2.875 C -1.882812 4.050781 -0.671875 4.523438 0.578125 4.296875 C 1.835938 4.078125 3.253906 3.179688 4.828125 1.609375 L 28.78125 -22.34375 L 34.203125 -16.921875 L 10.28125 7 C 7.300781 9.976562 4.347656 11.566406 1.421875 11.765625 C -1.503906 11.960938 -4.300781 10.726562 -6.96875 8.0625 Z M -6.96875 8.0625 "/></g></g><g transform="translate(60.664691, 163.608769)"><g><path d="M 25.421875 11.203125 C 23.109375 13.515625 20.453125 14.503906 17.453125 14.171875 C 14.460938 13.847656 11.488281 12.207031 8.53125 9.25 C 5.800781 6.519531 3.898438 3.585938 2.828125 0.453125 L 7.859375 -4.578125 C 8.828125 -2.085938 9.75 -0.0859375 10.625 1.421875 C 11.5 2.929688 12.429688 4.179688 13.421875 5.171875 C 14.609375 6.359375 15.75 7.046875 16.84375 7.234375 C 17.9375 7.421875 18.9375 7.0625 19.84375 6.15625 C 20.34375 5.65625 20.644531 5.066406 20.75 4.390625 C 20.863281 3.722656 20.828125 2.9375 20.640625 2.03125 C 20.460938 1.132812 19.929688 -0.546875 19.046875 -3.015625 C 18.210938 -5.304688 17.742188 -7.175781 17.640625 -8.625 C 17.546875 -10.082031 17.710938 -11.492188 18.140625 -12.859375 C 18.578125 -14.234375 19.394531 -15.519531 20.59375 -16.71875 C 22.851562 -18.976562 25.398438 -19.988281 28.234375 -19.75 C 31.066406 -19.507812 33.832031 -18.039062 36.53125 -15.34375 C 37.851562 -14.019531 38.957031 -12.59375 39.84375 -11.0625 C 40.738281 -9.539062 41.5625 -7.832031 42.3125 -5.9375 L 36.34375 -3.46875 C 35.539062 -5.394531 34.804688 -6.914062 34.140625 -8.03125 C 33.472656 -9.144531 32.707031 -10.132812 31.84375 -11 C 30.820312 -12.019531 29.796875 -12.566406 28.765625 -12.640625 C 27.734375 -12.710938 26.832031 -12.363281 26.0625 -11.59375 C 25.582031 -11.113281 25.273438 -10.582031 25.140625 -10 C 25.015625 -9.425781 25.023438 -8.726562 25.171875 -7.90625 C 25.328125 -7.09375 25.878906 -5.359375 26.828125 -2.703125 C 28.066406 0.828125 28.554688 3.613281 28.296875 5.65625 C 28.035156 7.695312 27.078125 9.546875 25.421875 11.203125 Z M 25.421875 11.203125 "/></g></g><g transform="translate(80.387564, 183.331642)"><g><path d="M 23.890625 23.890625 L 17.703125 17.703125 L 21.421875 2.078125 L 5.796875 5.796875 L 0 0 L 21.671875 -4.703125 L 26.109375 -25.015625 L 32.078125 -19.046875 L 28.390625 -4.328125 L 43 -8.125 L 48.828125 -2.296875 L 28.125 2.375 Z M 23.890625 23.890625 "/></g></g></g><g fill="#000000" fill-opacity="1"><g transform="translate(229.588728, 255.438874)"><g><path d="M 9.171875 -27.671875 C 12.054688 -24.785156 13.71875 -21.800781 14.15625 -18.71875 C 14.601562 -15.644531 13.707031 -12.988281 11.46875 -10.75 C 9.164062 -8.445312 6.625 -7.363281 3.84375 -7.5 L 12.9375 1.59375 L 9.71875 4.8125 L -16.46875 -21.375 L -13.515625 -24.328125 L -11.25 -22.375 C -11.570312 -25.320312 -10.5625 -27.96875 -8.21875 -30.3125 C -5.9375 -32.59375 -3.28125 -33.535156 -0.25 -33.140625 C 2.78125 -32.742188 5.820312 -31.019531 8.875 -27.96875 Z M 5.578125 -24.796875 C 3.441406 -26.929688 1.304688 -28.160156 -0.828125 -28.484375 C -2.972656 -28.816406 -4.835938 -28.191406 -6.421875 -26.609375 C -8.390625 -24.640625 -9 -22.300781 -8.25 -19.59375 L 0.78125 -10.5625 C 3.5 -9.800781 5.851562 -10.414062 7.84375 -12.40625 C 9.394531 -13.957031 10.007812 -15.804688 9.6875 -17.953125 C 9.363281 -20.097656 7.992188 -22.378906 5.578125 -24.796875 Z M 5.578125 -24.796875 "/></g></g><g transform="translate(249.678782, 235.34882)"><g><path d="M 5.96875 -5.96875 L 2.734375 -2.734375 L -16.1875 -21.65625 L -12.953125 -24.890625 Z M -21.46875 -26.40625 C -21.988281 -26.925781 -22.269531 -27.523438 -22.3125 -28.203125 C -22.363281 -28.890625 -22.070312 -29.546875 -21.4375 -30.171875 C -20.8125 -30.804688 -20.148438 -31.101562 -19.453125 -31.0625 C -18.765625 -31.03125 -18.15625 -30.75 -17.625 -30.21875 C -17.101562 -29.695312 -16.832031 -29.097656 -16.8125 -28.421875 C -16.789062 -27.742188 -17.09375 -27.085938 -17.71875 -26.453125 C -18.351562 -25.828125 -19.003906 -25.53125 -19.671875 -25.5625 C -20.335938 -25.59375 -20.9375 -25.875 -21.46875 -26.40625 Z M -21.46875 -26.40625 "/></g></g><g transform="translate(258.368736, 226.658866)"><g><path d="M -13.421875 -24.421875 L -10.9375 -22.15625 C -11.300781 -25.414062 -10.316406 -28.210938 -7.984375 -30.546875 C -3.984375 -34.546875 0.285156 -34.304688 4.828125 -29.828125 L 17.328125 -17.328125 L 14.09375 -14.09375 L 1.578125 -26.609375 C 0.203125 -27.960938 -1.113281 -28.65625 -2.375 -28.6875 C -3.644531 -28.726562 -4.925781 -28.101562 -6.21875 -26.8125 C -7.257812 -25.769531 -7.898438 -24.570312 -8.140625 -23.21875 C -8.378906 -21.863281 -8.269531 -20.507812 -7.8125 -19.15625 L 5.671875 -5.671875 L 2.453125 -2.453125 L -16.46875 -21.375 Z M -13.421875 -24.421875 "/></g></g><g transform="translate(278.126578, 206.901023)"><g><path d="M 10.65625 -9.9375 C 8.09375 -7.375 5.160156 -6.128906 1.859375 -6.203125 C -1.429688 -6.285156 -4.488281 -7.738281 -7.3125 -10.5625 L -7.90625 -11.15625 C -9.78125 -13.03125 -11.09375 -15.0625 -11.84375 -17.25 C -12.601562 -19.445312 -12.753906 -21.601562 -12.296875 -23.71875 C -11.847656 -25.84375 -10.867188 -27.660156 -9.359375 -29.171875 C -6.898438 -31.628906 -4.179688 -32.726562 -1.203125 -32.46875 C 1.773438 -32.207031 4.773438 -30.566406 7.796875 -27.546875 L 9.140625 -26.203125 L -3.671875 -13.390625 C -1.765625 -11.566406 0.285156 -10.601562 2.484375 -10.5 C 4.679688 -10.394531 6.582031 -11.144531 8.1875 -12.75 C 9.332031 -13.894531 10.066406 -15.097656 10.390625 -16.359375 C 10.710938 -17.617188 10.785156 -18.929688 10.609375 -20.296875 L 14.140625 -20.734375 C 14.992188 -16.710938 13.832031 -13.113281 10.65625 -9.9375 Z M -6.703125 -26.515625 C -8.015625 -25.203125 -8.632812 -23.625 -8.5625 -21.78125 C -8.5 -19.945312 -7.722656 -18.066406 -6.234375 -16.140625 L 3.25 -25.625 L 3 -25.875 C 1.269531 -27.4375 -0.441406 -28.269531 -2.140625 -28.375 C -3.835938 -28.476562 -5.359375 -27.859375 -6.703125 -26.515625 Z M -6.703125 -26.515625 "/></g></g></g><g clip-path="url(#d23f0589c9)"><g clip-path="url(#e7439737e2)"><path fill="url(#5f01ce8c6e)" d="M 126.101562 47.21875 L 126.101562 179.753906 L 258.636719 179.753906 L 258.636719 47.21875 Z M 126.101562 47.21875 " fill-rule="nonzero"/></g></g></svg>